<?xml version="1.0" encoding="utf-8"?>
<!-- Generator: Adobe Illustrator 27.8.1, SVG Export Plug-In . SVG Version: 6.00 Build 0)  -->
<svg version="1.1" id="Layer_1" xmlns="http://www.w3.org/2000/svg" xmlns:xlink="http://www.w3.org/1999/xlink" x="0px" y="0px"
	 viewBox="0 0 595.3 841.9" style="enable-background:new 0 0 595.3 841.9;" xml:space="preserve">
<style type="text/css">
	.st0{fill:#231F20;}
	.st1{fill:#EF4237;}
</style>
<path d="M149.9,646.9c6.5-10.5,118.4-212.8,118.4-214.1c4.5-7.8,36.2-64.8,47-80.4c0.2-0.3,56.5,33.7,55.9,34.7
	C356.2,412,225.6,638.1,220.6,646.9"/>
<path class="st0" d="M224.6,656.1"/>
<path class="st0" d="M224.6,658"/>
<path d="M346.3,592.8c10.9,0.3,200.6,0.8,222.1-1.4c0.1,0,0.1,0,0.2,0c1.7,1.6-26.7,57.8-27.3,59c0,0.1,0,0,0,0
	c-3.2,0-295,3.8-297.1,0.1c0-0.1,0-0.1,0.1-0.2c9.5-17.6,139.6-250.8,142.6-253.8c0.1-0.1,0.1,0,0.1,0c5.6,2.8,50.4,28.4,56.1,30
	c0.1,0,0.1,0,0.1,0.1C442.3,430.3,348.9,590.2,346.3,592.8L346.3,592.8z"/>
<path class="st1" d="M152.4,166.2c2.6,1.3,153.1,85.1,163.6,91.6c14.4,7.9,100.8,57.6,102.1,57.6s-32.7,51-34,51
	c-5.2-2.6-259.1-149.2-257.8-151.8C130.1,208.1,151,166.2,152.4,166.2L152.4,166.2z"/>
<path class="st1" d="M451.1,410.5c-8.8-5.9-53.7-30.7-53.7-32c7.5-12.6,29.5-48,31-50.5c0.1-1.3,81.9-7.2,83.2-7.1
	C512.8,322.3,452.4,410.6,451.1,410.5z"/>
<line class="st0" x1="334.2" y1="649.6" x2="343.6" y2="624.4"/>
<path class="st0" d="M424.5,503"/>
<path class="st0" d="M570.2,564.4"/>
<path class="st0" d="M201.6,296"/>
<path d="M68.5,297.5c2.6,1.3,153.1,85.1,163.6,91.6c14.4,7.9,100.8,57.6,102.1,57.6c1.3,0-32.7,51-34,51
	C294.9,495.1,41,348.5,42.3,345.9C46.2,339.4,67.2,297.5,68.5,297.5L68.5,297.5z"/>
</svg>
